<?xml version="1.0" encoding="UTF-8" standalone="no"?>
<!-- Generator: Adobe Illustrator 15.0.0, SVG Export Plug-In . SVG Version: 6.00 Build 0)  -->

<svg
   xmlns:dc="http://purl.org/dc/elements/1.1/"
   xmlns:cc="http://creativecommons.org/ns#"
   xmlns:rdf="http://www.w3.org/1999/02/22-rdf-syntax-ns#"
   xmlns:svg="http://www.w3.org/2000/svg"
   xmlns="http://www.w3.org/2000/svg"
   xmlns:sodipodi="http://sodipodi.sourceforge.net/DTD/sodipodi-0.dtd"
   xmlns:inkscape="http://www.inkscape.org/namespaces/inkscape"
   version="1.1"
   id="Capa_1"
   x="0px"
   y="0px"
   width="33.851002"
   height="33.849998"
   viewBox="0 0 33.851003 33.85"
   enable-background="new 0 0 135.398 33.85"
   xml:space="preserve"
   sodipodi:docname="u_logo.svg"
   inkscape:version="0.92.3 (2405546, 2018-03-11)"><metadata
   id="metadata21"><rdf:RDF><cc:Work
       rdf:about=""><dc:format>image/svg+xml</dc:format><dc:type
         rdf:resource="http://purl.org/dc/dcmitype/StillImage" /><dc:title></dc:title></cc:Work></rdf:RDF></metadata><defs
   id="defs19">
	
	
	
	
</defs><sodipodi:namedview
   pagecolor="#ffffff"
   bordercolor="#666666"
   borderopacity="1"
   objecttolerance="10"
   gridtolerance="10"
   guidetolerance="10"
   inkscape:pageopacity="0"
   inkscape:pageshadow="2"
   inkscape:window-width="1920"
   inkscape:window-height="1016"
   id="namedview17"
   showgrid="false"
   fit-margin-top="0"
   fit-margin-left="0"
   fit-margin-right="0"
   fit-margin-bottom="0"
   inkscape:zoom="4.6086355"
   inkscape:cx="66.639439"
   inkscape:cy="21.186355"
   inkscape:window-x="0"
   inkscape:window-y="27"
   inkscape:window-maximized="1"
   inkscape:current-layer="Capa_1" />
<rect
   style="fill:#ff0000"
   id="rect8"
   height="33.849998"
   width="33.851002"
   y="0"
   x="0" /><g
   id="g12">
		<path
   style="fill:#ffffff"
   inkscape:connector-curvature="0"
   id="path10"
   d="m 20.82,19.591 c 0,2.552 -1.24,3.998 -3.896,3.998 -2.652,0 -3.895,-1.445 -3.895,-3.998 V 5.289 h -2.825 v 14.336 c 0,4.24 2.652,6.375 6.72,6.375 4.103,0 6.721,-2.135 6.721,-6.375 V 5.301 L 20.82,8.132 Z m 6.271,0.068 V 5.289 h -2.825 v 14.336 c 0,4.651 -2.896,6.995 -7.342,6.995 -4.41,0 -7.339,-2.344 -7.339,-6.995 V 5.289 H 9.582 L 6.758,8.104 V 19.66 c 0,6.306 4.309,9.409 10.167,9.409 5.859,0 10.166,-3.104 10.166,-9.41" />
	</g>
</svg>