<?xml version="1.0" encoding="UTF-8" standalone="no"?>
<svg
   xmlns:dc="http://purl.org/dc/elements/1.1/"
   xmlns:cc="http://creativecommons.org/ns#"
   xmlns:rdf="http://www.w3.org/1999/02/22-rdf-syntax-ns#"
   xmlns:svg="http://www.w3.org/2000/svg"
   xmlns="http://www.w3.org/2000/svg"
   xmlns:sodipodi="http://sodipodi.sourceforge.net/DTD/sodipodi-0.dtd"
   xmlns:inkscape="http://www.inkscape.org/namespaces/inkscape"
   viewBox="0 0 19.9 16.2"
   version="1.1"
   id="svg4"
   sodipodi:docname="tw.svg"
   inkscape:version="0.92.3 (2405546, 2018-03-11)">
  <metadata
     id="metadata10">
    <rdf:RDF>
      <cc:Work
         rdf:about="">
        <dc:format>image/svg+xml</dc:format>
        <dc:type
           rdf:resource="http://purl.org/dc/dcmitype/StillImage" />
      </cc:Work>
    </rdf:RDF>
  </metadata>
  <defs
     id="defs8" />
  <sodipodi:namedview
     pagecolor="#ffffff"
     bordercolor="#666666"
     borderopacity="1"
     objecttolerance="10"
     gridtolerance="10"
     guidetolerance="10"
     inkscape:pageopacity="0"
     inkscape:pageshadow="2"
     inkscape:window-width="1920"
     inkscape:window-height="1016"
     id="namedview6"
     showgrid="false"
     inkscape:zoom="14.567901"
     inkscape:cx="10.087288"
     inkscape:cy="8.1000004"
     inkscape:window-x="0"
     inkscape:window-y="27"
     inkscape:window-maximized="1"
     inkscape:current-layer="svg4" />
  <path
     fill="#FF6C0C"
     d="M19.9 1.9c-.7.3-1.5.5-2.3.6.8-.5 1.5-1.3 1.8-2.3-.8.5-1.7.8-2.6 1-.8-.7-1.9-1.2-3-1.2-2.3 0-4.1 1.8-4.1 4.1 0 .3 0 .6.1.9C6.4 4.8 3.4 3.2 1.4.7 1 1.4.8 2.1.8 2.8c0 1.4.7 2.7 1.8 3.4-.6 0-1.3-.2-1.8-.5v.1c0 2 1.4 3.6 3.3 4-.4 0-.7.1-1.1.1-.3 0-.5 0-.8-.1.5 1.6 2 2.8 3.8 2.8-1.4 1.1-3.2 1.7-5.1 1.7-.3 0-.7 0-1-.1 1.8 1.2 4 1.8 6.3 1.8 7.5 0 11.6-6.2 11.6-11.6v-.5c.9-.4 1.5-1.2 2.1-2z"
     id="path2"
     style="fill:#b61b1b;fill-opacity:1" />
</svg>
